<?xml version="1.0" standalone="no"?>
<!DOCTYPE svg PUBLIC "-//W3C//DTD SVG 20010904//EN"
 "http://www.w3.org/TR/2001/REC-SVG-20010904/DTD/svg10.dtd">
<svg version="1.0" xmlns="http://www.w3.org/2000/svg"
 width="100.000000pt" height="29.000000pt" viewBox="0 0 100.000000 29.000000"
 preserveAspectRatio="xMidYMid meet">

<g transform="translate(0.000000,29.000000) scale(0.100000,-0.100000)"
fill="#de4152" stroke="none">
<path d="M50 146 c0 -123 18 -145 22 -29 l3 78 18 -60 c36 -121 51 -117 55 15
2 88 1 100 -14 100 -14 0 -16 -8 -11 -54 7 -74 -4 -79 -23 -9 -10 39 -21 59
-33 61 -15 3 -17 -7 -17 -102z"/>
<path d="M322 238 c-16 -16 -16 -170 0 -186 15 -15 51 -15 66 0 14 14 16 68 2
68 -5 0 -10 -8 -10 -18 0 -27 -21 -44 -37 -31 -13 12 -18 113 -7 143 9 24 33
19 40 -9 8 -31 24 -33 24 -2 0 29 -18 47 -45 47 -12 0 -26 -5 -33 -12z"/>
<path d="M450 145 c0 -85 3 -105 14 -105 11 0 16 14 18 48 3 39 6 47 23 47 20
0 22 -4 24 -62 0 -18 6 -33 11 -33 6 0 10 42 10 105 0 59 -4 105 -9 105 -6 0
-11 -19 -13 -42 -2 -36 -7 -44 -25 -46 -21 -3 -23 1 -23 42 0 34 -4 46 -15 46
-12 0 -15 -18 -15 -105z"/>
<path d="M621 168 c-7 -46 -15 -93 -18 -105 -7 -29 17 -31 24 -3 7 27 49 27
56 0 7 -28 31 -26 24 3 -3 12 -11 59 -17 105 -11 74 -14 82 -34 82 -20 0 -24
-8 -35 -82z m48 -41 c1 -22 -3 -28 -16 -25 -14 3 -17 11 -15 38 2 19 6 44 10
55 5 17 7 16 13 -10 4 -16 7 -43 8 -58z"/>
<path d="M760 145 c0 -63 4 -105 10 -105 6 0 10 42 10 105 0 63 -4 105 -10
105 -6 0 -10 -42 -10 -105z"/>
<path d="M840 145 c0 -63 4 -105 10 -105 6 0 10 32 10 77 0 89 10 87 35 -10
11 -41 23 -67 31 -67 11 0 14 23 14 105 0 63 -4 105 -10 105 -6 0 -10 -27 -10
-61 0 -72 -12 -70 -30 6 -10 42 -18 55 -32 55 -16 0 -18 -10 -18 -105z"/>
<path d="M200 150 c0 -5 9 -10 20 -10 11 0 23 0 27 -1 4 0 9 4 11 10 2 6 -10
11 -27 11 -17 0 -31 -4 -31 -10z"/>
</g>
</svg>
